<?xml version="1.0" encoding="utf-8"?>
<!-- Generator: Adobe Illustrator 18.1.1, SVG Export Plug-In . SVG Version: 6.00 Build 0)  -->
<svg version="1.1" id="Layer_1" xmlns="http://www.w3.org/2000/svg" xmlns:xlink="http://www.w3.org/1999/xlink" x="0px" y="0px"
	 viewBox="0 0 680.3 318.5" enable-background="new 0 0 680.3 318.5" xml:space="preserve">
<ellipse fill="#D5D7D8" cx="291.7" cy="296.9" rx="108.9" ry="3.8"/>
<ellipse fill="#D5D7D8" cx="524.7" cy="302.5" rx="155.6" ry="4.4"/>
<ellipse fill="#D5D7D8" cx="137.7" cy="315.9" rx="33.7" ry="2.6"/>
<ellipse fill="#D5D7D8" cx="73.7" cy="307.7" rx="73.7" ry="4"/>
<g>
	<path fill="#464547" d="M468.1,10c0-5.5-4.5-10-10-10h-340c-5.5,0-10,4.5-10,10v205h360V10z"/>
	<rect x="118.1" y="10" fill="#34B3C2" width="340" height="195"/>
	<rect x="233.1" y="249" fill="#DEDFE0" width="110" height="34.8"/>
	<polygon fill="#B8BABC" points="343.1,268.5 233.1,262.5 233.1,243 343.1,243 	"/>
	<polygon fill="#EFEFF0" points="348.1,294 228.6,294 233.4,283.7 343.3,283.7 	"/>
	<path fill="#FFFFFF" d="M346.1,297c-2,0-113,0-115,0s-2.5-3-2.5-3h119.5C348.1,294,348.1,297,346.1,297z"/>
	<path fill="#DCDDDE" d="M108.1,215v25c0,5.5,4.5,10,10,10h340c5.5,0,10-4.5,10-10v-25H108.1z"/>
</g>
<g>
	<path fill="#464547" d="M641.1,290c0,4.4-3.6,8-8,8h-219c-4.4,0-8-3.6-8-8V151c0-4.4,3.6-8,8-8h219c4.4,0,8,3.6,8,8V290z"/>
	<path fill="#E0E1E2" d="M661.1,303c-10,0-265,0-275,0s-10-10-10-10h295C671.1,293,671.1,303,661.1,303z"/>
	<rect x="413.1" y="150" fill="#34B3C2" width="221" height="137"/>
</g>
<g>
	<path fill="#464547" d="M138.6,297.5c0,6-5,11-11,11h-113c-6,0-11-5-11-11v-153c0-6,5-11,11-11h113c6,0,11,5,11,11V297.5z"/>
	<rect x="8.6" y="148.5" fill="#34B3C2" width="125" height="145"/>
	<path fill="#F1F1F1" d="M79.6,300.9c0,0.9-0.7,1.6-1.6,1.6H65.2c-0.9,0-1.6-0.7-1.6-1.6v-0.8c0-0.9,0.7-1.6,1.6-1.6H78
		c0.9,0,1.6,0.7,1.6,1.6V300.9z"/>
	<circle fill="#F1F1F1" cx="70.8" cy="140" r="1.8"/>
</g>
<g>
	<path fill="#464547" d="M166.4,306c0,5.8-4.7,10.5-10.5,10.5h-35.6c-5.8,0-10.5-4.7-10.5-10.5v-80c0-5.8,4.7-10.5,10.5-10.5h35.6
		c5.8,0,10.5,4.7,10.5,10.5V306z"/>
	<rect x="113" y="226" fill="#34B3C2" width="50.1" height="80"/>
	<path fill="#F1F1F1" d="M144.6,311.2c0,0.7-0.6,1.3-1.3,1.3h-10.3c-0.7,0-1.3-0.6-1.3-1.3v-0.6c0-0.7,0.6-1.3,1.3-1.3h10.3
		c0.7,0,1.3,0.6,1.3,1.3V311.2z"/>
	<path fill="#F1F1F1" d="M144.6,218.9c0,0.4-0.6,0.6-1.3,0.6h-10.3c-0.7,0-1.3-0.3-1.3-0.6v-0.3c0-0.4,0.6-0.6,1.3-0.6h10.3
		c0.7,0,1.3,0.3,1.3,0.6V218.9z"/>
	<circle fill="#F1F1F1" cx="138.1" cy="222.4" r="1.2"/>
</g>
<g>
	<g>
		<g>
			<circle fill="#F1EFE1" cx="275.1" cy="152" r="10.8"/>
		</g>
	</g>
	<g>
		<g>
			<path fill="#F1EFE1" d="M329.7,152c0,6-4.8,10.8-10.8,10.8c-6,0-10.8-4.8-10.8-10.8c0-6,4.8-10.8,10.8-10.8
				C324.9,141.2,329.7,146,329.7,152z"/>
		</g>
	</g>
	<g>
		<g>
			<polygon fill="#F1EFE1" points="335.5,127.2 258.2,127.2 226.3,62 202.8,62 202.8,53 231.4,53 263.3,120.5 335.5,120.5 			"/>
		</g>
	</g>
	<g>
		<g>
			<polygon fill="#F1EFE1" points="242.3,57.5 269.2,111.5 323,111.5 349.9,57.5 			"/>
		</g>
	</g>
</g>
<g>
	<path fill="#F1EFE1" d="M569.2,222.8c-1.1,0-2-0.8-1.9-1.9c0-1.1-0.9-2-2-2c-1.1,0-2,1.8-2.1,4c0,2.2-0.1,4-4,4
		c-3.9,0-1.7-4.4-1.7-4.4c1-2,0.6-4.9-0.9-6.5c-0.8-0.9-1.6-1.7-2.4-2.6c-1.5-1.6-3.2-2.4-3.8-1.8c-0.6,0.6-0.3,1.9,0.7,2.9
		c1,1,1.5,2.4,1,3.1c-0.4,0.7-2.3,0.5-4.3-0.5c-0.3-0.1-0.6-0.3-0.8-0.4c-2-1-2.3-0.5-0.7,1c0.8,0.8,1.6,1.6,2.4,2.3
		c1.6,1.6,2.1,4.4,1.2,6.4c-0.1,0.3-0.3,0.6-0.4,0.8c-0.9,1.9-2.1,5.2-2.6,7.2c-0.1,0.2-0.1,0.5-0.2,0.7c-0.6,2-1.8,4.4-2.8,5.3
		c-1,0.9-2,0.7-2.2-0.3c-0.2-1.1-1.1-2-2.1-2.1c-1-0.1-2.1-1.9-2.4-4c-0.2-1.2-0.3-2.5-0.4-3.7c-0.2-2.1-2-4.6-4-5.6
		c-0.4-0.2-0.8-0.4-1.2-0.6c-2-1-4.6-3.3-5.7-5c-0.2-0.3-0.3-0.5-0.4-0.8c-1-1.7,0-3.1,2.2-3.2c1.3,0,2.7,0,4,0
		c2.2,0,5.7-0.5,7.8-1.1c2.1-0.6,3.8-2.7,3.9-4.6c0.1-1.9-1.5-3.1-3.6-2.7c-2.1,0.5-4.7,1.7-5.9,2.8c-1.2,1.1-3.9,2-6.1,2.1
		c-2.2,0.1-3.9-1.4-3.6-3.3c0.3-1.9,2-4.5,3.6-5.7c1.6-1.3,4.3-2.4,6-2.5c1.7-0.1,3.5-1.7,4-3.7c0.5-2,2.5-3.9,4.4-4.2
		c1-0.2,2.1-0.3,3.1-0.4c1.9-0.3,5-0.5,6.9-0.5c1.3,0,2.7,0,4,0c1.6,0,3.8,0.1,5.6,0.1c-7.9-8.7-19.4-14.2-32.1-14.2
		c-12.4,0-23.6,5.2-31.5,13.6c1.8-0.3,3.7-0.4,5.5-0.5c1.9-0.1,5,0.1,6.9,0.4c1.2,0.1,2.3,0.3,3.5,0.6c1.9,0.4,3.7,2.5,3.9,4.6
		c0.1,1.3,0.3,2.5,0.4,3.8c0.2,2.1-0.7,4.8-2.2,6.1c-1.9,1.8-3.9,3.8-6,5.8c-1.5,1.5-1.3,3.8,0.6,5c1.8,1.2,3.6,2.4,5.4,3.6
		c1.8,1.2,4.9,2.9,6.9,3.8c0.3,0.1,0.6,0.2,0.8,0.4c2,0.9,3.5,3,3.4,4.9c-0.1,1.9-1.1,3.6-2.2,3.7c-1.1,0.1-2.9,1.8-3.9,3.8
		c-0.2,0.3-0.3,0.6-0.5,0.8c-1.1,2-2.9,4.6-4,5.8c-1.1,1.2-1.2,3-0.3,3.8c0.9,0.9,1.5,2.4,1.3,3.4c-0.1,1-1.5,1.5-3.2,0.9
		c-0.2-0.1-0.5-0.2-0.7-0.3c-1.6-0.6-2.9-3.1-2.8-5.2c0.1-1.7,0.2-3.4,0.3-5.1c0.1-2.2-0.7-4.5-1.8-5.3c-1.1-0.7-2.9-2.2-4-3.3
		c-1.1-1.1-2-3.8-2-6c0-2.2-0.9-4.9-2-6c-1.1-1.1-2-2-2-2c0,0,0,0-4,0c-4,0.1-3.8-4.1-3.8-4.1c0.1-2.1,0.8-5.5,1.6-7.6
		c0.5-1.3,1-2.7,1.5-4c0.8-2.1-0.3-3.2-2.3-2.4c-0.5,0.2-1,0.4-1.5,0.6c-3,5.9-4.7,12.6-4.7,19.7c0,23.9,19.4,43.3,43.3,43.3
		c23.6,0,42.9-18.9,43.3-42.5C571.6,222.1,570.1,222.8,569.2,222.8z M522.4,203.3c-0.7,0.8-1.8-0.2-2.1-2.1
		c-0.2-1.1-0.2-2.2-0.1-3.2c0.2-1.8,2.5-4,4.3-4.2c1.2-0.1,2.4-0.1,3.6,0c1.9,0.2,3.7,1.5,3.8,2.3c0.1,0.8-1.5,2.3-3.5,3.3
		c-0.3,0.1-0.6,0.3-0.8,0.4C525.5,200.8,523.1,202.5,522.4,203.3z"/>
</g>
<g>
	<g>
		<path fill="#F1EFE1" d="M85.1,200.1c-3.6-1.1-7.9-1.1-8.6-4c0,0,0.4-0.7,0.7-1.8c0.4-1.1,0.5-2.2,0.5-2.2s0.4,1,0.7,0
			c0.4-1.1,0.7-3.3,0.7-4c0-0.7-0.7-0.7-0.7-0.7s0.4-2.4-0.3-4.9c0.3,0.1,0.4,0.2,0.4,0.2c-0.8-1.6-0.4-3.2-3.4-4.2
			c-1-0.6-2.3-0.9-3.9-0.9c-0.3,0-0.5,0-0.8,0c-0.1,0-0.2,0-0.3,0c-8.4-0.7-6.1,9.8-6.1,9.8s-0.7,0-0.7,0.7c0,0.7,0.4,2.9,0.7,4
			c0.3,1,0.7,0,0.7,0s0.2,1.1,0.5,2.2c0.4,1.1,0.7,1.8,0.7,1.8c-0.7,2.9-4.9,2.9-8.6,4c-3.6,1.1-2.9,6.9-2.9,6.9h16.6H88
			C88,207,88.7,201.2,85.1,200.1z"/>
	</g>
	<g>
		<circle fill="#F1EFE1" cx="70.4" cy="244.2" r="6.7"/>
	</g>
	<g>
		<circle fill="#F1EFE1" cx="51.3" cy="244.2" r="6.7"/>
	</g>
	<g>
		<circle fill="#F1EFE1" cx="89.6" cy="244.2" r="6.7"/>
	</g>
	<polygon fill="#F1EFE1" points="86.4,216.5 55.3,216.5 50.9,228.6 54.1,229.8 57.7,220 69.1,220 69.1,230.3 72.6,230.3 72.6,220 
		84,220 87.6,229.8 90.8,228.6 	"/>
</g>
<g>
	<g>
		<polygon fill="#F1EFE1" points="121.6,282.2 120.4,281.1 120.4,285 128,285 128,278 126.1,278 		"/>
	</g>
	<g>
		<polygon fill="#F1EFE1" points="134.1,270 130.1,273.9 130.1,285 137,285 137,271 		"/>
	</g>
	<g>
		<polygon fill="#F1EFE1" points="144.5,273.4 139.1,271.7 139.1,285 146.8,285 146.8,270.6 		"/>
	</g>
	<g>
		<polygon fill="#F1EFE1" points="155,258.7 148.8,267.1 148.8,285 155.8,285 155.8,257.9 		"/>
	</g>
	<polygon fill="#F1EFE1" points="152.3,253.9 148.8,258.5 143,266.3 133.2,263 120.4,275.1 120.4,277.4 121.6,278.6 134.1,266.8 
		144.1,270.1 148.8,263.9 154.7,256.2 155.8,255.4 155.8,251.1 	"/>
</g>
<path fill="#F1EFE1" d="M578.2,220.2c0,0,0,0.9,0,2.6c0,0.4,0,0.9,0,1.4c0,0.5,0,1.1-0.1,1.7c-0.2,1.2-0.3,2.6-0.5,4.1
	c-0.4,1.5-0.7,3.2-1.2,5c-0.3,0.9-0.6,1.8-0.9,2.8c-0.2,0.5-0.3,1-0.5,1.5c-0.2,0.5-0.4,1-0.7,1.5c-1.7,4.1-4.3,8.3-7.9,12.4
	c-3.6,4.1-8.1,7.9-13.7,10.9c-5.5,2.9-11.9,5-18.7,5.6c-0.9,0-1.7,0.1-2.6,0.1l-1.3,0.1l-0.1,0l-0.1,0l-0.2,0l-0.3,0l-0.6,0
	c-0.8,0-1.7-0.1-2.5-0.1c-0.4,0-0.8,0-1.3-0.1l-1.3-0.2c-1.8-0.3-3.6-0.4-5.3-0.9c-0.9-0.2-1.7-0.4-2.6-0.7
	c-0.9-0.2-1.7-0.6-2.5-0.9c-6.8-2.4-13.1-6.4-18.3-11.5c-5.1-5.2-9.1-11.6-11.5-18.3c-2.5-6.8-3.2-14-2.7-20.7
	c0.6-6.9,2.6-13.3,5.6-18.8c2.9-5.5,6.8-10.1,10.9-13.7c4.1-3.6,8.3-6.2,12.4-7.9c0.5-0.2,1-0.4,1.5-0.7c0.5-0.2,1-0.3,1.5-0.5
	c1-0.3,1.9-0.6,2.8-0.9c1.8-0.5,3.5-0.8,5-1.2c1.6-0.2,2.9-0.4,4.1-0.5c0.6-0.1,1.2-0.1,1.7-0.1c0.5,0,1,0,1.4,0c1.7,0,2.6,0,2.6,0
	s-0.9,0.1-2.5,0.2c-0.4,0-0.9,0.1-1.4,0.1c-0.5,0-1.1,0.1-1.7,0.2c-1.2,0.2-2.5,0.5-4.1,0.7c-1.5,0.4-3.1,0.9-4.9,1.4
	c-0.9,0.3-1.8,0.7-2.7,1.1c-0.5,0.2-0.9,0.4-1.4,0.6c-0.5,0.2-0.9,0.5-1.4,0.7c-3.9,1.8-7.9,4.6-11.7,8.1c-3.8,3.6-7.4,8.1-10,13.4
	c-2.7,5.3-4.4,11.5-4.9,17.9c-0.5,6.5,0.4,13.2,2.8,19.6c2.3,6.4,6.1,12.3,10.9,17.2c4.9,4.9,10.8,8.6,17.2,10.9
	c0.8,0.3,1.6,0.6,2.4,0.8c0.8,0.2,1.6,0.4,2.4,0.6c1.6,0.5,3.3,0.7,4.9,0.9l1.2,0.2c0.4,0,0.8,0.1,1.3,0.1c0.8,0,1.7,0.1,2.5,0.1
	l0.6,0l0.3,0l0.2,0c0,0,0.1,0,0,0l0.1,0l1.2-0.1c0.8,0,1.6-0.1,2.4-0.1c6.5-0.5,12.6-2.2,17.9-4.9c5.3-2.7,9.8-6.2,13.4-10
	c3.6-3.8,6.3-7.8,8.1-11.7c0.2-0.5,0.5-0.9,0.7-1.4c0.2-0.5,0.4-1,0.6-1.4c0.4-0.9,0.7-1.8,1.1-2.7c0.6-1.8,1-3.4,1.4-4.9
	c0.3-1.5,0.5-2.9,0.7-4.1c0.1-0.6,0.2-1.1,0.2-1.7c0-0.5,0.1-1,0.1-1.4C578.1,221.1,578.2,220.2,578.2,220.2z"/>
<path fill="#F1EFE1" d="M234.6,172.5c0,0,7.4-0.5,18.6-0.9c2.8-0.1,5.8-0.2,9-0.3c3.2-0.1,6.6-0.2,10.1-0.2c3.5,0,7.1-0.1,10.8-0.1
	c3.7,0,7.4,0,11.1-0.1c3.7,0,7.4,0,11.1,0.1c3.7,0,7.3,0.1,10.8,0.1c7,0.1,13.5,0.3,19.1,0.5c11.2,0.4,18.6,0.9,18.6,0.9
	s-7.4,0.5-18.6,0.9c-5.6,0.2-12.1,0.4-19.1,0.5c-3.5,0-7.1,0.1-10.8,0.1c-3.7,0-7.4,0-11.1,0.1c-3.7,0-7.4,0-11.1-0.1
	c-3.7,0-7.3-0.1-10.8-0.1c-3.5,0-6.9-0.1-10.1-0.2c-3.2-0.1-6.2-0.2-9-0.3C242.1,173,234.6,172.5,234.6,172.5z"/>
<path fill="#F1EFE1" d="M31.5,265.2c0,0,4.9-0.3,12.2-0.6c1.8-0.1,3.8-0.1,5.9-0.2c2.1,0,4.3-0.1,6.6-0.1c2.3,0,4.6-0.1,7-0.1
	c2.4,0,4.8,0,7.3,0c2.4,0,4.9,0,7.3,0c2.4,0,4.7,0.1,7,0.1c4.6,0.1,8.8,0.2,12.5,0.3c7.3,0.2,12.2,0.6,12.2,0.6s-4.9,0.3-12.2,0.6
	c-3.6,0.1-7.9,0.2-12.5,0.3c-2.3,0-4.6,0.1-7,0.1c-2.4,0-4.8,0-7.3,0c-2.4,0-4.9,0-7.3,0c-2.4,0-4.7-0.1-7-0.1
	c-2.3,0-4.5-0.1-6.6-0.1c-2.1,0-4.1-0.1-5.9-0.2C36.4,265.6,31.5,265.2,31.5,265.2z"/>
</svg>
