<?xml version="1.0" encoding="utf-8"?>
<!-- Generator: Adobe Illustrator 18.1.1, SVG Export Plug-In . SVG Version: 6.00 Build 0)  -->
<svg version="1.1" id="Layer_1" xmlns="http://www.w3.org/2000/svg" xmlns:xlink="http://www.w3.org/1999/xlink" x="0px" y="0px"
	 viewBox="0 0 2000 614.8" enable-background="new 0 0 2000 614.8" xml:space="preserve">
<linearGradient id="SVGID_1_" gradientUnits="userSpaceOnUse" x1="1190.76" y1="-838.267" x2="1020.215" y2="-839.4318" gradientTransform="matrix(-0.9771 -0.323 0.2901 -0.8773 1473.4467 -35.8309)">
	<stop  offset="0.2308" style="stop-color:#999875"/>
	<stop  offset="0.5632" style="stop-color:#9B9977"/>
	<stop  offset="0.6829" style="stop-color:#A09F7E"/>
	<stop  offset="0.7683" style="stop-color:#A9A889"/>
	<stop  offset="0.8373" style="stop-color:#B7B69A"/>
	<stop  offset="0.8964" style="stop-color:#C9C7B0"/>
	<stop  offset="0.9482" style="stop-color:#DEDDCB"/>
	<stop  offset="0.9944" style="stop-color:#F8F6EB"/>
	<stop  offset="1" style="stop-color:#FBF9EF"/>
</linearGradient>
<path fill="url(#SVGID_1_)" d="M162.5,579.3l-14.5-4.8c0,0,1.8-73.2-24.6-78.3c-17.4-20.2,2.7-861.9,65.9-2.9
	c0,0-21.7,10.9-25.8,29.3C159.5,541,162.5,579.3,162.5,579.3z"/>
<linearGradient id="SVGID_2_" gradientUnits="userSpaceOnUse" x1="1217.0259" y1="-539.7853" x2="971.6677" y2="-964.758" gradientTransform="matrix(-0.9771 -0.323 0.2901 -0.8773 1473.4467 -35.8309)">
	<stop  offset="0" style="stop-color:#48A547"/>
	<stop  offset="1" style="stop-color:#3F9143"/>
</linearGradient>
<path fill="url(#SVGID_2_)" d="M170.3,508.5c0,0,125.7-82.8,96.3-254.8C238.2,128.9,171.2,87.8,164,72.1
	c-7.9-11.1-15.9-30.8-15.9-30.8l5.3,348.1C153.5,389.4,142.4,495.7,170.3,508.5z"/>
<linearGradient id="SVGID_3_" gradientUnits="userSpaceOnUse" x1="1239.5034" y1="-845.2819" x2="1065.5883" y2="-728.4633" gradientTransform="matrix(-0.9771 -0.323 0.2901 -0.8773 1473.4467 -35.8309)">
	<stop  offset="0" style="stop-color:#41A247"/>
	<stop  offset="0.3523" style="stop-color:#4BA74B"/>
	<stop  offset="0.9557" style="stop-color:#67B554"/>
	<stop  offset="1" style="stop-color:#69B655"/>
</linearGradient>
<path fill="url(#SVGID_3_)" d="M140.6,513.2c0,0-117.9-80.4-111.1-222.4c6.8-141.9,90.1-211.7,106.3-224.4
	c10.5-11.2,10.9-15.5,11.7-26.5c7.4,15.8,6.1,235.9,6.9,261.6C157.5,401.6,148.9,494.3,140.6,513.2z"/>
<path fill="#C0BFBE" d="M1486.3,249.3c6.7,0,32.4,1.2,44.3,1.2c22.2,0,37.7-1.2,79.4-1.2c35,0,64.4,9.4,85.4,27.5
	c25.4,22,38.9,52.6,38.9,89.8c0,53-24.2,83.6-48.5,100.8c-24.2,18-55.6,28.2-100.5,28.2c-23.8,0-64.7-0.8-98.9-1.2h-0.5
	c-1.6-3.1,2.9-15.4,5.7-15.7c9.2-1,11.7-1.4,16-3.2c7.2-3,8.9-6.6,9.7-19.6c1.2-24.3,0.8-53.3,0.8-86.3c0-23.5,0.4-69.4-0.4-83.9
	c-1.2-12.2-6.3-15.3-16.7-17.7c-5.2-1.2-12.3-2.4-22.2-3.5C1478.2,262.2,1484.3,251.6,1486.3,249.3z M1565.6,467.4
	c8.3,6.7,25,9.4,39.7,9.4c19.1,0,37.7-3.5,56-20c18.7-16.9,31.4-42.8,31.4-83.9c0-39.6-15.1-71.8-46.1-90.6
	c-17.5-11-40.1-15.3-65.9-15.3c-7.5,0-15.1,0.4-19.5,2.4c-1.2,0.8-3.6,3.9-3.6,5.5c-0.8,7.1-0.8,60.8-0.8,92.6
	c0,32.6,0,78.1,0.8,83.6C1558,455.6,1560.4,463.8,1565.6,467.4z"/>
<path fill="#C0BFBE" d="M1767.8,249.3c3.6,0,14.1,1.2,41.2,1.2c25.4,0,46.1-0.8,70.7-0.8c30.6,0,72.7,11,72.7,56.5
	c0,22.4-15.9,40.4-36.5,49c-1.2,0.4-1.2,1.2,0,1.6c29.4,7.4,55.2,25.5,55.2,60c0,33.7-21,54.9-51.6,68.3c-18.7,8.2-41.7,11-65.1,11
	c-17.9,0-65.8-2-92.4-1.6c-2.8-1.2,2.5-13.7,4.9-15.7c6.4-0.4,11.3-0.8,18-2.8c9.5-2.4,10.7-5.4,11.9-19.5
	c0.8-12.2,0.8-55.7,0.8-86.7c0-42.4,0.4-71,0-85.1c-0.4-11-4.4-14.5-11.9-16.5c-6-1.2-15.9-2.4-23.8-3.5
	C1759.7,262.6,1765.8,250.8,1767.8,249.3z M1929.7,425.4c0-34.5-25.4-54.1-71.9-54.1c-2,0-16.7-0.4-20.3,0.4c-1.2,0.4-2.4,1.2-2.4,2
	c0,24.7-0.4,64.3,0.8,80c0.8,6.7,5.6,16.1,11.5,18.8c6.4,3.5,20.7,4.3,30.6,4.3C1905.5,476.8,1929.7,461.5,1929.7,425.4z
	 M1839.6,268.5c-1.6,0.4-3.6,4.3-3.6,6.3c-0.4,14.1-0.8,51-0.8,76.5c0,0.8,1.2,2,2,2c5.2,0.4,17.9,0.8,28.6,0.8
	c15.1,0,23.8-2,28.6-4.3c12.7-6.3,18.7-20,18.7-34.9c0-34.1-23.8-47.1-59.2-47.1C1851.5,267.7,1844.7,267.7,1839.6,268.5z"/>
<path fill="#484748" d="M346.9,495.4c-0.7-1.1-1.4-4.2-1.2-7.9c0.1-2.9,0.7-4.7,1.2-5.3c7.5-1.2,11-2,15.2-3.1
	c7-1.7,9.7-5.5,10.1-14.5c1.2-21.2,1.2-60.8,0.8-88.7l0-0.8c0-3,0.1-7.1-3.7-10c-5.5-3.6-12.4-6.6-21.1-9.2c-3.3-1-5.2-2.7-5.1-4.8
	c0.1-2,2.2-4.5,6.5-5.3c11.5-1.2,41.7-8.4,53.5-13.8c0.7,0.9,1.8,2.7,1.6,5.6c-0.1,1.2-0.2,2.5-0.3,3.9c-0.3,3.9-0.7,8.4-0.7,12.9
	c0,1.3,1.4,2.6,2.9,2.6c0.8,0,1.5-0.3,2.1-0.9c22.6-17.6,42.7-23.9,53.1-23.9c17.1,0,30.3,8.1,40.6,24.9c0.6,0.9,1.4,1.4,2.3,1.4
	c0.9,0,1.7-0.4,2.2-1.2c20.7-15.7,41.3-25.1,55-25.1c32.5,0,51.9,24.3,51.9,65c0,11.7-0.1,26.5-0.2,40.4
	c-0.1,12.1-0.2,23.5-0.2,31.4c0,1.9,2.6,7.2,6.4,8.3c4.8,2.3,11.6,3.5,20.3,5l0.3,0.1c0.7,2.3-0.7,11.4-2,13.3
	c-2.2,0-5.1-0.2-8.8-0.4c-6.8-0.3-16-0.8-26.8-0.8c-21.6,0-32.9,0.4-43.7,1.1c-0.8-2.7-1.1-11.4-0.1-13.2c6.3-1.2,9.4-2,13.2-3.1
	c6.9-2.3,8.9-5.4,9.3-14.5c0.2-6.5,1.4-63.6-0.8-77.1c-2-14-12.6-30.5-35.8-30.5c-8.6,0-22.5,3.6-35.7,13.6
	c-0.8,0.8-1.3,2.3-1.3,3.4l0,0.3c1.6,7.3,1.6,15.9,1.6,28.8c0,7.4,0,15.2-0.1,22.9c-0.1,15.7-0.2,30.6,0.1,41.8
	c0,7.7,4.6,9.5,8.4,11c2,0.4,3.6,0.8,5.2,1.2c3.1,0.8,6.4,1.5,11.1,2.3c0.7,1.5,0.7,6-0.2,9.9c-0.5,2.1-1.1,3.1-1.4,3.4
	c-12-0.4-24.3-0.8-42.1-0.8c-5.4,0-14.2,0.2-22,0.4c-6.3,0.2-12.3,0.3-15.6,0.3c-0.5-0.8-1.2-3.3-1.2-6.8c0-3.3,0.6-5.7,1.2-6.4
	c1.7-0.3,3.3-0.6,4.8-0.9c4.2-0.7,7.8-1.4,11.2-2.2c5.9-1.8,8.1-5.1,8.5-12.5c1.1-17.5,2-67.7-0.4-80.3
	c-4.2-20.2-15.7-30.5-34.2-30.5c-10.8,0-24.5,5.2-35.7,13.6c-1.9,1.4-3.3,4.9-3.3,8.1c0,6,0,13.1,0,20.8
	c-0.1,25.3-0.2,56.7,0.4,70.3c0.4,4.2,1.8,9.2,9.7,11c1.7,0.5,4.7,1,8.2,1.6c2,0.3,4.2,0.7,6.4,1.1c0.8,2.2,0.3,10.6-1.1,13.3
	c-3.5,0-7.7-0.2-12.6-0.4c-7.4-0.3-16.7-0.7-27.2-0.7c-12.4,0-21.1,0.4-28,0.7C354.9,495.2,350.9,495.4,346.9,495.4L346.9,495.4z"/>
<path fill="#484748" d="M747.3,499c-59.7,0-80.9-43.7-80.9-84.6c0-28.6,11.7-50.9,34.8-66.4c16.4-10.1,36-15.9,53.7-15.9
	c45.5,0,77.4,32.7,77.4,79.5c0,31.8-12.7,57-36.8,72.7C783.9,491.3,763.9,499,747.3,499L747.3,499z M740.9,348.7
	c-7.2,0-14,1.9-19,5.3c-13.8,8.4-20.8,25.1-20.8,49.7c0,46,23.1,78.2,56.1,78.2c9.7,0,17.7-2.8,24.3-8.6
	c10.1-8.3,15.5-25.2,15.5-48.8C797,379.2,774.5,348.7,740.9,348.7L740.9,348.7z"/>
<path fill="#484748" d="M1365.2,499c-59.7,0-80.9-43.7-80.9-84.6c0-28.6,11.7-50.9,34.8-66.4c16.4-10.1,36-15.9,53.7-15.9
	c45.5,0,77.4,32.7,77.4,79.5c0,31.9-12.7,57-36.8,72.7C1401.8,491.3,1381.8,499,1365.2,499L1365.2,499z M1358.9,348.7
	c-7.2,0-14,1.9-19,5.3c-13.8,8.4-20.8,25.1-20.8,49.7c0,46,23.1,78.2,56.1,78.2c9.7,0,17.7-2.8,24.3-8.6
	c10.1-8.3,15.5-25.2,15.5-48.8C1415,379.2,1392.4,348.7,1358.9,348.7L1358.9,348.7z"/>
<path fill="#484748" d="M1159.2,593.1c-21.4,0-36.9-4.5-50-14.7c-12.8-9.9-18.6-24.6-18.6-34.7c0-2.9,0.7-10.4,7-17.6
	c3.7-4.2,12.4-12.2,32.4-25.9c0.6-0.2,1-0.8,1-1.6c0-0.8-0.5-1.5-1.3-1.6c-16.5-6.3-21.4-16.6-22.9-22.2c0-0.2-0.1-0.5-0.2-0.9
	c-0.5-2.2-0.9-4.3,2.1-6.4c2.3-1.6,6-3.8,9.9-6.1c5.8-3.4,12.3-7.3,16-10.4c0.6-0.6,0.8-1.4,0.7-2.2c-0.1-0.8-0.6-1.5-1.3-1.9
	c-24.4-8.2-36.6-26.3-36.6-53.8c0-17.8,8.2-33.8,22.5-44.1c9.8-7.7,34.4-17,50.3-17l0.9,0c16.4,0.4,25.6,3.8,38.4,8.5
	c6.9,2.6,13.5,3.6,22.7,3.6c13.6,0,19.5-4.3,24.6-9.2c0.3,0.6,1,2.6,1.3,7c0.3,4.6-0.9,11.3-4.4,16.1c-2.8,3.8-9.2,6.6-15.3,6.6
	c-0.6,0-1.2,0-1.8-0.1c-6.2-0.6-9.2-1.5-9.2-1.5l-1.5,0.5c-0.5,0.7-0.2,1.5,0.2,2.5c0.1,0.2,0.2,0.5,0.2,0.6
	c0.8,3.2,2.2,12.4,2.2,15c0,28.9-11.4,41.5-23.7,50.8c-11.8,8.9-25.5,14.2-41,15.8h0c-0.3,0-1.8,0.1-4.7,0.4
	c-1.9,0.2-4.3,0.4-4.6,0.4l-0.4,0c-2.7,0.8-9.7,4.1-9.7,10.3c0,5.1,3.2,11.5,18.3,12.6c3.1,0.2,6.3,0.5,9.8,0.7
	c19.9,1.4,44.8,3.1,56.6,7.1c16.1,5.9,26.1,20.3,26.1,37.6c0,25.9-18.4,50.3-49.3,65.1C1190.8,589.7,1175.6,593.1,1159.2,593.1
	L1159.2,593.1z M1156.8,502.1c-6.9,0-11.9,2-14.9,3.7c-14.6,9.3-21.3,18.6-21.3,29.4c0,10.1,3.9,18.1,12.4,25.3
	c10.2,8.7,24,12.9,42.1,12.9c35.7,0,51.7-19.2,51.7-38.1c0-13.2-6.6-22.1-20.3-27.1C1195.9,504.2,1178.3,502.1,1156.8,502.1
	L1156.8,502.1z M1159.2,347.2c-18.4,0-30.3,14.5-30.3,37c0,22.7,10.2,49.1,39,49.1c4.9,0,13.9-2.2,18.4-7.1
	c6.7-6.1,11.1-18.8,11.1-32.2C1197.3,364.6,1183.1,347.2,1159.2,347.2L1159.2,347.2z"/>
<path fill="#484748" d="M1062.2,481c-8.7-1.2-15.1-2.4-22.6-5.9c-1.2-0.8-2.8-4.3-2.8-5.5c-0.8-12.2-0.8-47.5-0.8-70.6
	c0-18.8-3.2-35.3-11.1-47.1c-9.5-13.3-23-21.2-40.5-21.2c-15.5,0-36.1,10.6-53.2,25.1c-0.4,0.4-3,2.9-3-1c0.1-3.9,0.7-11.7,1-16.7
	c0.4-4.9-2.6-7.3-2.6-7.3c-11.1,5.5-42.4,12.9-54,14.1c-8.5,1.6-10.6,9.7-1.6,12.5v0c0,0,0.1,0,0.1,0c9.4,2.8,15.8,5.9,20.5,9
	c3.6,2.7,3.2,6.7,3.2,9.8c0.4,26.3,0.4,66.7-0.8,88.7c-0.4,8.6-2.8,11.8-9.1,13.3l0.6-0.2c-4.8,1.2-8.7,2-14.7,2.7
	c-2,2-2,13.3,0,15.7c4,0,24.2-1.2,40.9-1.2c23,0,35,1.2,40.9,1.2c2.4-2.8,3.2-13.3,1.6-15.7c-6.8-0.4-11.5-1.2-16.3-2.4
	c-6.4-1.6-7.9-4.7-8.3-11.8c-0.8-18.4-0.8-57.7-0.8-84.3c0-7.5,2-11,4.4-12.9c7.9-7.1,21-11.8,32.6-11.8c11.1,0,18.7,3.5,24.2,8.2
	c7.5,6.3,10.3,15.3,11.1,22c1.6,14.9,1.2,44.7,1.2,70.6c0,14.1-1.2,17.7-6.4,19.2c-2.4,1.2-8.7,2.4-16.3,3.1
	c-2.4,2.3-1.6,13.3,0,15.7c10.3,0,22.2-1.2,39.7-1.2c21.8,0,35.7,1.2,41.3,1.2C1063,494,1063.8,483.8,1062.2,481z"/>
</svg>
