<?xml version="1.0" encoding="utf-8"?>
<!-- Generator: Adobe Illustrator 18.1.1, SVG Export Plug-In . SVG Version: 6.00 Build 0)  -->
<svg version="1.1" id="Layer_1" xmlns="http://www.w3.org/2000/svg" xmlns:xlink="http://www.w3.org/1999/xlink" x="0px" y="0px"
	 viewBox="0 0 690.2 318.6" enable-background="new 0 0 690.2 318.6" xml:space="preserve">
<ellipse fill="#D5D7D8" cx="302.7" cy="297" rx="108.9" ry="3.8"/>
<ellipse fill="#D5D7D8" cx="534.7" cy="302.5" rx="155.6" ry="4.4"/>
<ellipse fill="#D5D7D8" cx="150.7" cy="316" rx="33.7" ry="2.6"/>
<ellipse fill="#D5D7D8" cx="82.7" cy="307.8" rx="73.7" ry="4"/>
<g>
	<rect x="244" y="249.1" fill="#DEDFE0" width="110" height="34.8"/>
	<polygon fill="#B8BABC" points="354,268.6 244,262.6 244,243.1 354,243.1 	"/>
	<polygon fill="#EFEFF0" points="359,294.1 239.5,294.1 244.3,283.8 354.2,283.8 	"/>
	<path fill="#FFFFFF" d="M357,297.1c-2,0-113,0-115,0c-2,0-2.5-3-2.5-3H359C359,294.1,359,297.1,357,297.1z"/>
</g>
<g>
	<path fill="#464547" d="M478.9,10c0-5.5-4.5-10-10-10h-340c-5.5,0-10,4.5-10,10v205h360V10z"/>
	<rect x="128.9" y="10" fill="#BDBBA9" width="340" height="195"/>
	<path fill="#DCDDDE" d="M118.9,215v25c0,5.5,4.5,10,10,10h340c5.5,0,10-4.5,10-10v-25H118.9z"/>
</g>
<g>
	<rect x="137.5" y="18" fill="#F1EFE1" width="100.6" height="42.2"/>
	<rect x="137.5" y="70.3" fill="#F1EFE1" width="323.9" height="42.2"/>
	<rect x="137.5" y="182.9" fill="#F1EFE1" width="323.9" height="14.1"/>
	<rect x="248.2" y="18" fill="#F1EFE1" width="213.2" height="42.2"/>
	<rect x="137.5" y="122.6" fill="#F1EFE1" width="100.6" height="10.1"/>
	<rect x="248.2" y="122.6" fill="#F1EFE1" width="102.6" height="10.1"/>
	<rect x="360.8" y="122.6" fill="#F1EFE1" width="100.6" height="50.3"/>
	<rect x="137.5" y="142.7" fill="#F1EFE1" width="100.6" height="10.1"/>
	<rect x="248.2" y="142.7" fill="#F1EFE1" width="102.6" height="10.1"/>
	<rect x="137.5" y="162.8" fill="#F1EFE1" width="100.6" height="10.1"/>
	<rect x="248.2" y="162.8" fill="#F1EFE1" width="102.6" height="10.1"/>
	<g>
		<g>
			<path fill="#BDBBA9" d="M388.5,132.3v31.3H435v-31.3H388.5z M427.7,135.8c2.2,0,3.9,1.7,3.9,3.9c0,2.2-1.7,3.9-3.9,3.9
				c-2.2,0-3.9-1.7-3.9-3.9C423.8,137.5,425.5,135.8,427.7,135.8z M392.9,159.1v-11.7l3.7-7.8l7.7,11.7l7.8-7.8l7.8,11.7l3.9-3.9
				l7.8,7.8H392.9z"/>
		</g>
	</g>
</g>
<g>
	<path fill="#464547" d="M651.9,290c0,4.4-3.6,8-8,8h-219c-4.4,0-8-3.6-8-8V151c0-4.4,3.6-8,8-8h219c4.4,0,8,3.6,8,8V290z"/>
	<path fill="#E0E1E2" d="M671.9,303c-10,0-265,0-275,0s-10-10-10-10h295C681.9,293,681.9,303,671.9,303z"/>
	<rect x="423.9" y="150" fill="#BDBBA9" width="221" height="137"/>
</g>
<g>
	<rect x="429.5" y="155" fill="#F1EFE1" width="65.1" height="32.5"/>
	<rect x="429.5" y="193.6" fill="#F1EFE1" width="209.5" height="32.5"/>
	<rect x="429.5" y="276" fill="#F1EFE1" width="209.5" height="6.4"/>
	<rect x="500.6" y="155" fill="#F1EFE1" width="138.3" height="32.5"/>
	<rect x="429.5" y="234.3" fill="#F1EFE1" width="65.1" height="6.1"/>
	<rect x="500.6" y="234.3" fill="#F1EFE1" width="67.1" height="6.1"/>
	<rect x="429.5" y="244.5" fill="#F1EFE1" width="65.1" height="6.1"/>
	<rect x="500.6" y="244.5" fill="#F1EFE1" width="67.1" height="6.1"/>
	<rect x="429.5" y="254.6" fill="#F1EFE1" width="65.1" height="6.1"/>
	<rect x="500.6" y="254.6" fill="#F1EFE1" width="67.1" height="6.1"/>
	<rect x="429.5" y="264.8" fill="#F1EFE1" width="65.1" height="6.1"/>
	<rect x="500.6" y="264.8" fill="#F1EFE1" width="67.1" height="6.1"/>
	<rect x="573.9" y="234.3" fill="#F1EFE1" width="65.1" height="36.6"/>
	<g>
		<g>
			<path fill="#BDBBA9" d="M589.5,240.9v23.5h33.5v-23.5H589.5z M617.7,243.5c1.5,0,2.8,1.3,2.8,2.9c0,1.6-1.3,2.9-2.8,2.9
				c-1.6,0-2.8-1.3-2.8-2.9C614.9,244.8,616.1,243.5,617.7,243.5z M592.7,261v-8.7l2.7-5.9l5.5,8.8l5.6-5.9l5.6,8.8l2.8-2.9l5.6,5.8
				H592.7z"/>
		</g>
	</g>
</g>
<g>
	<path fill="#464547" d="M149.4,297.5c0,6-5,11-11,11h-113c-6,0-11-5-11-11v-153c0-6,5-11,11-11h113c6,0,11,5,11,11V297.5z"/>
	<rect x="19.4" y="148.5" fill="#BDBBA9" width="125" height="145"/>
	<path fill="#F2F2F2" d="M90.4,300.9c0,0.9-0.7,1.6-1.6,1.6H76c-0.9,0-1.6-0.7-1.6-1.6v-0.8c0-0.9,0.7-1.6,1.6-1.6h12.8
		c0.9,0,1.6,0.7,1.6,1.6V300.9z"/>
	<circle fill="#F2F2F2" cx="81.6" cy="140" r="1.8"/>
</g>
<g>
	<rect x="23.9" y="152.9" fill="#F1EFE1" width="37" height="21.2"/>
	<rect x="23.9" y="279.9" fill="#F1EFE1" width="37" height="9.1"/>
	<rect x="66.2" y="279.9" fill="#F1EFE1" width="31.7" height="9.1"/>
	<rect x="103.3" y="279.9" fill="#F1EFE1" width="37" height="9.1"/>
	<rect x="23.9" y="179.4" fill="#F1EFE1" width="116.4" height="21.2"/>
	<rect x="23.9" y="205.8" fill="#F1EFE1" width="116.4" height="5.3"/>
	<rect x="23.9" y="216.4" fill="#F1EFE1" width="116.4" height="5.3"/>
	<rect x="23.9" y="227" fill="#F1EFE1" width="116.4" height="5.3"/>
	<rect x="23.9" y="269.3" fill="#F1EFE1" width="116.4" height="5.3"/>
	<rect x="23.9" y="237.5" fill="#F1EFE1" width="60.8" height="5.3"/>
	<rect x="23.9" y="248.1" fill="#F1EFE1" width="60.8" height="5.3"/>
	<rect x="23.9" y="258.7" fill="#F1EFE1" width="60.8" height="5.3"/>
	<rect x="66.2" y="152.9" fill="#F1EFE1" width="74.1" height="21.2"/>
	<rect x="90.1" y="237.5" fill="#F1EFE1" width="50.3" height="26.5"/>
	<g>
		<g>
			<path fill="#BDBBA9" d="M103.5,242.7v16.6H127v-16.6H103.5z M123.3,244.6c1.1,0,2,0.9,2,2.1c0,1.1-0.9,2.1-2,2.1
				c-1.1,0-2-0.9-2-2.1C121.3,245.5,122.2,244.6,123.3,244.6z M105.7,257v-6.2l1.9-4.1l3.9,6.2l3.9-4.1l3.9,6.2l2-2.1l3.9,4.1H105.7
				z"/>
		</g>
	</g>
</g>
<g>
	<path fill="#464547" d="M177.2,306c0,5.8-4.7,10.5-10.5,10.5h-35.6c-5.8,0-10.5-4.7-10.5-10.5v-80c0-5.8,4.7-10.5,10.5-10.5h35.6
		c5.8,0,10.5,4.7,10.5,10.5V306z"/>
	<rect x="123.9" y="226" fill="#BDBBA9" width="50.1" height="80"/>
	<path fill="#F2F2F2" d="M155.4,311.2c0,0.7-0.6,1.3-1.3,1.3h-10.3c-0.7,0-1.3-0.6-1.3-1.3v-0.6c0-0.7,0.6-1.3,1.3-1.3h10.3
		c0.7,0,1.3,0.6,1.3,1.3V311.2z"/>
	<path fill="#F2F2F2" d="M155.4,220.9c0,0.4-0.6,0.6-1.3,0.6h-10.3c-0.7,0-1.3-0.3-1.3-0.6v-0.3c0-0.4,0.6-0.6,1.3-0.6h10.3
		c0.7,0,1.3,0.3,1.3,0.6V220.9z"/>
</g>
<g>
	<rect x="126.2" y="228" fill="#F1EFE1" width="13.6" height="11.4"/>
	<rect x="126.2" y="284.7" fill="#F1EFE1" width="13.6" height="9.1"/>
	<rect x="142.1" y="284.7" fill="#F1EFE1" width="13.6" height="9.1"/>
	<rect x="158" y="284.7" fill="#F1EFE1" width="13.6" height="9.1"/>
	<rect x="126.2" y="241.6" fill="#F1EFE1" width="45.4" height="9.1"/>
	<rect x="126.2" y="253" fill="#F1EFE1" width="45.4" height="2.3"/>
	<rect x="126.2" y="257.5" fill="#F1EFE1" width="45.4" height="2.3"/>
	<rect x="126.2" y="262" fill="#F1EFE1" width="45.4" height="2.3"/>
	<rect x="126.2" y="280.2" fill="#F1EFE1" width="45.4" height="2.3"/>
	<rect x="126.2" y="266.6" fill="#F1EFE1" width="22.7" height="2.3"/>
	<rect x="126.2" y="271.1" fill="#F1EFE1" width="22.7" height="2.3"/>
	<rect x="126.2" y="275.7" fill="#F1EFE1" width="22.7" height="2.3"/>
	<rect x="142.1" y="228" fill="#F1EFE1" width="29.5" height="11.4"/>
	<rect x="126.2" y="296.1" fill="#F1EFE1" width="45.4" height="7.3"/>
	<rect x="151.2" y="266.6" fill="#F1EFE1" width="20.4" height="11.4"/>
	<g>
		<g>
			<path fill="#BDBBA9" d="M155.4,268v8.2h11.3V268H155.4z M164.9,268.9c0.5,0,0.9,0.5,0.9,1c0,0.6-0.4,1-0.9,1
				c-0.5,0-0.9-0.5-0.9-1C163.9,269.3,164.4,268.9,164.9,268.9z M156.5,275V272l0.9-2.1l1.9,3.1l1.9-2.1l1.9,3.1l0.9-1l1.9,2H156.5z
				"/>
		</g>
	</g>
</g>
</svg>
