<?xml version="1.0" encoding="utf-8"?>
<!-- Generator: Adobe Illustrator 18.1.1, SVG Export Plug-In . SVG Version: 6.00 Build 0)  -->
<svg version="1.1" id="Layer_1" xmlns="http://www.w3.org/2000/svg" xmlns:xlink="http://www.w3.org/1999/xlink" x="0px" y="0px"
	 viewBox="0 0 50 46" enable-background="new 0 0 50 46" xml:space="preserve">
<radialGradient id="SVGID_1_" cx="40.7176" cy="-2.3916" r="58.6132" gradientUnits="userSpaceOnUse">
	<stop  offset="0" style="stop-color:#2E3192"/>
	<stop  offset="0.3682" style="stop-color:#1C75BC"/>
	<stop  offset="1" style="stop-color:#00AEEF"/>
</radialGradient>
<path fill-rule="evenodd" clip-rule="evenodd" fill="url(#SVGID_1_)" d="M48.1,12.6C44,5.2,33.4,0,22.3,0C13.8,0,6.8,3,3.1,8.3
	C-0.7,13.6-1,21.1,2.2,29.9c3.5,9.7,11.3,15.6,20.9,15.6c0,0,0,0,0,0c9,0,17.6-5,23-13.4C51.7,23.2,50.3,16.6,48.1,12.6z M15.4,30.3
	c1.7,1,4,1.8,6.6,1.8c2.3,0,4.4-1.1,4.4-3.3c0-1.6-1.2-2.6-3.8-3.9c-3-1.6-5.8-3.8-5.8-7.4c0-5.6,4.9-9.1,11-9.1
	c3.4,0,5.4,0.7,6.6,1.4l-1.9,5c-0.9-0.5-2.9-1.3-5.2-1.2c-2.8,0-4.2,1.4-4.2,2.9c0,1.6,1.7,2.6,4.1,3.9c3.4,1.8,5.5,4.1,5.5,7.4
	c0,6.2-5.1,9.4-11.3,9.4c-3.9,0-6.7-1-8-2L15.4,30.3z M23.1,43.9L23.1,43.9c-8.9,0-16.2-5.4-19.5-14.5c-3-8.3-2.7-15.3,0.7-20.2
	c1.8-2.6,4.6-4.6,8-5.9c-6,2.9-9.9,9.4-8.7,21c1.9,18.1,20.2,23.6,34.1,14.6C33.3,42.1,28.3,43.9,23.1,43.9z M22.9,1.6
	c10.4,0.2,20.1,5,23.8,11.8c1.5,2.7,2,5.8,1.6,8.9C48,11.5,34.9,2.5,22.9,1.6z"/>
</svg>
