<?xml version="1.0" encoding="utf-8"?>
<!-- Generator: Adobe Illustrator 18.1.1, SVG Export Plug-In . SVG Version: 6.00 Build 0)  -->
<svg version="1.1" id="Layer_1" xmlns="http://www.w3.org/2000/svg" xmlns:xlink="http://www.w3.org/1999/xlink" x="0px" y="0px"
	 viewBox="0 0 681.3 318.9" enable-background="new 0 0 681.3 318.9" xml:space="preserve">
<ellipse fill="#D5D7D8" cx="293.7" cy="297.3" rx="108.9" ry="3.8"/>
<ellipse fill="#D5D7D8" cx="525.7" cy="302.8" rx="155.6" ry="4.4"/>
<ellipse fill="#D5D7D8" cx="141.7" cy="316.3" rx="33.7" ry="2.6"/>
<ellipse fill="#D5D7D8" cx="73.7" cy="308.1" rx="73.7" ry="4"/>
<g>
	<rect x="242.1" y="248.9" fill="#DEDFE0" width="110" height="34.8"/>
	<polygon fill="#B8BABC" points="352.1,268.4 242.1,262.4 242.1,242.9 352.1,242.9 	"/>
	<polygon fill="#EFEFF0" points="357.1,293.9 237.6,293.9 242.4,283.6 352.3,283.6 	"/>
	<path fill="#FFFFFF" d="M355.1,296.9c-2,0-113,0-115,0s-2.5-3-2.5-3h119.5C357.1,293.9,357.1,296.9,355.1,296.9z"/>
</g>
<path fill="#464547" d="M471,10c0-5.5-4.5-10-10-10H121c-5.5,0-10,4.5-10,10v205h360V10z"/>
<rect x="121" y="10" fill="#F2F2F2" width="340" height="195"/>
<path fill="#DCDDDE" d="M111,215v25c0,5.5,4.5,10,10,10h340c5.5,0,10-4.5,10-10v-25H111z"/>
<g>
	<path fill="#464547" d="M643.9,290c0,4.4-3.6,8-8,8h-219c-4.4,0-8-3.6-8-8V151c0-4.4,3.6-8,8-8h219c4.4,0,8,3.6,8,8V290z"/>
	<path fill="#E0E1E2" d="M663.9,303c-10,0-265,0-275,0s-10-10-10-10h295C673.9,293,673.9,303,663.9,303z"/>
	<rect x="415.9" y="150" fill="#FFFFFF" width="221" height="137"/>
</g>
<g>
	<path fill="#464547" d="M141.5,297.5c0,6-5,11-11,11h-113c-6,0-11-5-11-11v-153c0-6,5-11,11-11h113c6,0,11,5,11,11V297.5z"/>
	<rect x="11.5" y="148.5" fill="#FFFFFF" width="125" height="145"/>
	<path fill="#F1F1F1" d="M82.5,300.9c0,0.9-0.7,1.6-1.6,1.6H68.1c-0.9,0-1.6-0.7-1.6-1.6v-0.8c0-0.9,0.7-1.6,1.6-1.6h12.8
		c0.9,0,1.6,0.7,1.6,1.6V300.9z"/>
	<circle fill="#F1F1F1" cx="73.7" cy="140" r="1.8"/>
</g>
<g>
	<polygon fill="#34B3C2" points="148.5,186.7 147.3,172.2 242.5,164.5 345.2,106.3 443.5,90.5 445.8,104.9 350.1,120.3 246.9,178.8 
			"/>
</g>
<g>
	<polygon fill="#FFD900" points="151.9,185.5 143.8,173.4 243.1,107.3 345.3,126.1 439.7,37.2 449.7,47.9 349.9,141.7 246.3,122.7 	
		"/>
</g>
<g>
	<path fill="#9F9EA3" d="M154.5,31.7c0,2.5-2.1,4.6-4.6,4.6c-2.5,0-4.6-2.1-4.6-4.6c0-2.5,2.1-4.6,4.6-4.6
		C152.5,27.1,154.5,29.1,154.5,31.7z"/>
	<path fill="#9F9EA3" d="M168.3,31.7c0,2.5-2.1,4.6-4.6,4.6c-2.5,0-4.6-2.1-4.6-4.6c0-2.5,2.1-4.6,4.6-4.6
		C166.2,27.1,168.3,29.1,168.3,31.7z"/>
	<path fill="#9F9EA3" d="M182,31.7c0,2.5-2.1,4.6-4.6,4.6c-2.5,0-4.6-2.1-4.6-4.6c0-2.5,2.1-4.6,4.6-4.6
		C179.9,27.1,182,29.1,182,31.7z"/>
	<circle fill="#9F9EA3" cx="191.1" cy="31.7" r="4.6"/>
	<path fill="#9F9EA3" d="M154.5,48.8c0,2.5-2.1,4.6-4.6,4.6c-2.5,0-4.6-2.1-4.6-4.6c0-2.5,2.1-4.6,4.6-4.6
		C152.5,44.2,154.5,46.3,154.5,48.8z"/>
	<path fill="#9F9EA3" d="M168.3,48.8c0,2.5-2.1,4.6-4.6,4.6c-2.5,0-4.6-2.1-4.6-4.6c0-2.5,2.1-4.6,4.6-4.6
		C166.2,44.2,168.3,46.3,168.3,48.8z"/>
	<path fill="#9F9EA3" d="M154.5,65.9c0,2.5-2.1,4.6-4.6,4.6c-2.5,0-4.6-2.1-4.6-4.6c0-2.5,2.1-4.6,4.6-4.6
		C152.5,61.3,154.5,63.4,154.5,65.9z"/>
	<path fill="#9F9EA3" d="M168.3,65.9c0,2.5-2.1,4.6-4.6,4.6c-2.5,0-4.6-2.1-4.6-4.6c0-2.5,2.1-4.6,4.6-4.6
		C166.2,61.3,168.3,63.4,168.3,65.9z"/>
	<path fill="#9F9EA3" d="M182,48.8c0,2.5-2.1,4.6-4.6,4.6c-2.5,0-4.6-2.1-4.6-4.6c0-2.5,2.1-4.6,4.6-4.6
		C179.9,44.2,182,46.3,182,48.8z"/>
	<path fill="#9F9EA3" d="M195.7,48.8c0,2.5-2.1,4.6-4.6,4.6c-2.5,0-4.6-2.1-4.6-4.6c0-2.5,2.1-4.6,4.6-4.6
		C193.6,44.2,195.7,46.3,195.7,48.8z"/>
	<path fill="#9F9EA3" d="M209.4,48.8c0,2.5-2.1,4.6-4.6,4.6c-2.5,0-4.6-2.1-4.6-4.6c0-2.5,2.1-4.6,4.6-4.6
		C207.3,44.2,209.4,46.3,209.4,48.8z"/>
	<path fill="#9F9EA3" d="M195.7,65.9c0,2.5-2.1,4.6-4.6,4.6c-2.5,0-4.6-2.1-4.6-4.6c0-2.5,2.1-4.6,4.6-4.6
		C193.6,61.3,195.7,63.4,195.7,65.9z"/>
	<path fill="#9F9EA3" d="M209.4,65.9c0,2.5-2.1,4.6-4.6,4.6c-2.5,0-4.6-2.1-4.6-4.6c0-2.5,2.1-4.6,4.6-4.6
		C207.3,61.3,209.4,63.4,209.4,65.9z"/>
	<circle fill="#9F9EA3" cx="259.6" cy="31.7" r="4.6"/>
	<circle fill="#9F9EA3" cx="218.5" cy="31.7" r="4.6"/>
	<path fill="#9F9EA3" d="M223.1,65.9c0,2.5-2.1,4.6-4.6,4.6c-2.5,0-4.6-2.1-4.6-4.6c0-2.5,2.1-4.6,4.6-4.6
		C221,61.3,223.1,63.4,223.1,65.9z"/>
	<circle fill="#9F9EA3" cx="232.2" cy="31.7" r="4.6"/>
	<circle fill="#9F9EA3" cx="245.9" cy="31.7" r="4.6"/>
	<path fill="#9F9EA3" d="M236.8,48.8c0,2.5-2.1,4.6-4.6,4.6c-2.5,0-4.6-2.1-4.6-4.6c0-2.5,2.1-4.6,4.6-4.6
		C234.7,44.2,236.8,46.3,236.8,48.8z"/>
	<path fill="#9F9EA3" d="M250.5,48.8c0,2.5-2.1,4.6-4.6,4.6c-2.5,0-4.6-2.1-4.6-4.6c0-2.5,2.1-4.6,4.6-4.6
		C248.4,44.2,250.5,46.3,250.5,48.8z"/>
</g>
<rect x="433.1" y="259.4" fill="#34B3C2" width="26.4" height="17.6"/>
<rect x="463.9" y="252.8" fill="#34B3C2" width="26.4" height="24.2"/>
<rect x="494.6" y="224.2" fill="#34B3C2" width="28.6" height="52.8"/>
<rect x="527.6" y="239.6" fill="#34B3C2" width="28.6" height="37.4"/>
<rect x="560.6" y="211" fill="#34B3C2" width="26.4" height="65.9"/>
<rect x="591.4" y="169.3" fill="#34B3C2" width="28.6" height="107.7"/>
<g>
	<path fill="#9F9EA3" d="M439.1,168c0,1.6-1.3,2.9-3,2.9c-1.6,0-2.9-1.3-2.9-2.9c0-1.6,1.3-3,2.9-3
		C437.8,165.1,439.1,166.4,439.1,168z"/>
	<path fill="#9F9EA3" d="M447.9,168c0,1.6-1.3,2.9-3,2.9c-1.6,0-2.9-1.3-2.9-2.9c0-1.6,1.3-3,2.9-3
		C446.6,165.1,447.9,166.4,447.9,168z"/>
	<path fill="#9F9EA3" d="M456.7,168c0,1.6-1.3,2.9-3,2.9c-1.6,0-2.9-1.3-2.9-2.9c0-1.6,1.3-3,2.9-3
		C455.4,165.1,456.7,166.4,456.7,168z"/>
	<path fill="#9F9EA3" d="M465.5,168c0,1.6-1.3,2.9-3,2.9c-1.6,0-3-1.3-3-2.9c0-1.6,1.3-3,3-3C464.2,165.1,465.5,166.4,465.5,168z"/>
	<path fill="#9F9EA3" d="M439.1,179c0,1.6-1.3,2.9-3,2.9c-1.6,0-2.9-1.3-2.9-2.9c0-1.6,1.3-3,2.9-3
		C437.8,176.1,439.1,177.4,439.1,179z"/>
	<path fill="#9F9EA3" d="M447.9,179c0,1.6-1.3,2.9-3,2.9c-1.6,0-2.9-1.3-2.9-2.9c0-1.6,1.3-3,2.9-3
		C446.6,176.1,447.9,177.4,447.9,179z"/>
	<path fill="#9F9EA3" d="M439.1,190c0,1.6-1.3,2.9-3,2.9c-1.6,0-2.9-1.3-2.9-2.9c0-1.6,1.3-3,2.9-3
		C437.8,187.1,439.1,188.4,439.1,190z"/>
	<path fill="#9F9EA3" d="M447.9,190c0,1.6-1.3,2.9-3,2.9c-1.6,0-2.9-1.3-2.9-2.9c0-1.6,1.3-3,2.9-3
		C446.6,187.1,447.9,188.4,447.9,190z"/>
	<path fill="#9F9EA3" d="M456.7,179c0,1.6-1.3,2.9-3,2.9c-1.6,0-2.9-1.3-2.9-2.9c0-1.6,1.3-3,2.9-3
		C455.4,176.1,456.7,177.4,456.7,179z"/>
	<path fill="#9F9EA3" d="M465.5,179c0,1.6-1.3,2.9-3,2.9c-1.6,0-3-1.3-3-2.9c0-1.6,1.3-3,3-3C464.2,176.1,465.5,177.4,465.5,179z"/>
	<path fill="#9F9EA3" d="M474.3,179c0,1.6-1.3,2.9-3,2.9c-1.6,0-3-1.3-3-2.9c0-1.6,1.3-3,3-3C472.9,176.1,474.3,177.4,474.3,179z"/>
	<path fill="#9F9EA3" d="M465.5,190c0,1.6-1.3,2.9-3,2.9c-1.6,0-3-1.3-3-2.9c0-1.6,1.3-3,3-3C464.2,187.1,465.5,188.4,465.5,190z"/>
	<path fill="#9F9EA3" d="M474.3,190c0,1.6-1.3,2.9-3,2.9c-1.6,0-3-1.3-3-2.9c0-1.6,1.3-3,3-3C472.9,187.1,474.3,188.4,474.3,190z"/>
	<path fill="#9F9EA3" d="M509.4,168c0,1.6-1.3,2.9-3,2.9c-1.6,0-3-1.3-3-2.9c0-1.6,1.3-3,3-3C508.1,165.1,509.4,166.4,509.4,168z"/>
	<path fill="#9F9EA3" d="M483.1,168c0,1.6-1.3,2.9-3,2.9c-1.6,0-3-1.3-3-2.9c0-1.6,1.3-3,3-3C481.7,165.1,483.1,166.4,483.1,168z"/>
	<path fill="#9F9EA3" d="M483.1,190c0,1.6-1.3,2.9-3,2.9c-1.6,0-3-1.3-3-2.9c0-1.6,1.3-3,3-3C481.7,187.1,483.1,188.4,483.1,190z"/>
	<path fill="#9F9EA3" d="M491.9,168c0,1.6-1.3,2.9-3,2.9c-1.6,0-3-1.3-3-2.9c0-1.6,1.3-3,3-3C490.5,165.1,491.9,166.4,491.9,168z"/>
	<path fill="#9F9EA3" d="M500.6,168c0,1.6-1.3,2.9-3,2.9c-1.6,0-3-1.3-3-2.9c0-1.6,1.3-3,3-3C499.3,165.1,500.6,166.4,500.6,168z"/>
	<path fill="#9F9EA3" d="M491.9,179c0,1.6-1.3,2.9-3,2.9c-1.6,0-3-1.3-3-2.9c0-1.6,1.3-3,3-3C490.5,176.1,491.9,177.4,491.9,179z"/>
	<path fill="#9F9EA3" d="M500.6,179c0,1.6-1.3,2.9-3,2.9c-1.6,0-3-1.3-3-2.9c0-1.6,1.3-3,3-3C499.3,176.1,500.6,177.4,500.6,179z"/>
</g>
<g>
	<circle fill="#9F9EA3" cx="27.4" cy="213" r="1.7"/>
	<circle fill="#9F9EA3" cx="32.5" cy="213" r="1.7"/>
	<circle fill="#9F9EA3" cx="27.4" cy="206.5" r="1.7"/>
	<circle fill="#9F9EA3" cx="32.5" cy="206.5" r="1.7"/>
	<circle fill="#9F9EA3" cx="37.7" cy="213" r="1.7"/>
	<circle fill="#9F9EA3" cx="42.8" cy="213" r="1.7"/>
	<circle fill="#9F9EA3" cx="48" cy="213" r="1.7"/>
	<circle fill="#9F9EA3" cx="42.8" cy="206.5" r="1.7"/>
	<circle fill="#9F9EA3" cx="48" cy="206.5" r="1.7"/>
	<circle fill="#9F9EA3" cx="53.1" cy="206.5" r="1.7"/>
	<circle fill="#9F9EA3" cx="63.7" cy="206.5" r="1.7"/>
	<circle fill="#9F9EA3" cx="68.9" cy="206.5" r="1.7"/>
	<circle fill="#9F9EA3" cx="58.3" cy="213" r="1.7"/>
	<circle fill="#9F9EA3" cx="63.4" cy="213" r="1.7"/>
</g>
<g>
	<circle fill="#9F9EA3" cx="27.4" cy="284.8" r="1.7"/>
	<circle fill="#9F9EA3" cx="32.5" cy="284.8" r="1.7"/>
	<circle fill="#9F9EA3" cx="37.7" cy="284.8" r="1.7"/>
	<circle fill="#9F9EA3" cx="42.8" cy="284.8" r="1.7"/>
	<circle fill="#9F9EA3" cx="27.4" cy="278.4" r="1.7"/>
	<circle fill="#9F9EA3" cx="32.5" cy="278.4" r="1.7"/>
	<circle fill="#9F9EA3" cx="37.7" cy="278.4" r="1.7"/>
	<circle fill="#9F9EA3" cx="42.8" cy="278.4" r="1.7"/>
	<circle fill="#9F9EA3" cx="48" cy="278.4" r="1.7"/>
	<circle fill="#9F9EA3" cx="53.1" cy="284.8" r="1.7"/>
	<circle fill="#9F9EA3" cx="58.3" cy="284.8" r="1.7"/>
	<circle fill="#9F9EA3" cx="58.3" cy="278.4" r="1.7"/>
	<circle fill="#9F9EA3" cx="63.4" cy="278.4" r="1.7"/>
</g>
<g>
	<circle fill="#9F9EA3" cx="79.2" cy="212.7" r="1.7"/>
	<circle fill="#9F9EA3" cx="84.4" cy="212.7" r="1.7"/>
	<circle fill="#9F9EA3" cx="89.5" cy="212.7" r="1.7"/>
	<circle fill="#9F9EA3" cx="94.7" cy="212.7" r="1.7"/>
	<circle fill="#9F9EA3" cx="79.2" cy="206.2" r="1.7"/>
	<circle fill="#9F9EA3" cx="84.4" cy="206.2" r="1.7"/>
	<circle fill="#9F9EA3" cx="89.5" cy="206.2" r="1.7"/>
	<circle fill="#9F9EA3" cx="94.7" cy="206.2" r="1.7"/>
	<circle fill="#9F9EA3" cx="99.8" cy="206.2" r="1.7"/>
	<circle fill="#9F9EA3" cx="105" cy="212.7" r="1.7"/>
	<circle fill="#9F9EA3" cx="110.1" cy="212.7" r="1.7"/>
	<circle fill="#9F9EA3" cx="110.1" cy="206.2" r="1.7"/>
	<circle fill="#9F9EA3" cx="115.3" cy="206.2" r="1.7"/>
</g>
<rect x="25.5" y="154" fill="#FFD900" width="45.1" height="45.1"/>
<g>
	<circle fill="#9F9EA3" cx="79.2" cy="285.2" r="1.7"/>
	<circle fill="#9F9EA3" cx="84.4" cy="285.2" r="1.7"/>
	<circle fill="#9F9EA3" cx="79.2" cy="278.7" r="1.7"/>
	<circle fill="#9F9EA3" cx="84.4" cy="278.7" r="1.7"/>
	<circle fill="#9F9EA3" cx="89.5" cy="285.2" r="1.7"/>
	<circle fill="#9F9EA3" cx="94.7" cy="285.2" r="1.7"/>
	<circle fill="#9F9EA3" cx="99.8" cy="285.2" r="1.7"/>
	<circle fill="#9F9EA3" cx="94.7" cy="278.7" r="1.7"/>
	<circle fill="#9F9EA3" cx="99.8" cy="278.7" r="1.7"/>
	<circle fill="#9F9EA3" cx="105" cy="278.7" r="1.7"/>
	<circle fill="#9F9EA3" cx="115.6" cy="278.7" r="1.7"/>
	<circle fill="#9F9EA3" cx="120.8" cy="278.7" r="1.7"/>
	<circle fill="#9F9EA3" cx="110.1" cy="285.2" r="1.7"/>
	<circle fill="#9F9EA3" cx="115.3" cy="285.2" r="1.7"/>
</g>
<rect x="77.4" y="226.2" fill="#5C6E76" width="45.1" height="45.1"/>
<rect x="77.4" y="154" fill="#34B3C2" width="45.1" height="45.1"/>
<path fill="#FFFFFF" d="M48.1,176.5v-13.7c0,0,0.1,0,0.1,0c-8,0-14.4,6.5-14.4,14.5c0,8,6.5,13.9,14.5,13.9
	c7.8,0,14.3-5.6,14.5-14.6H48.1z"/>
<rect x="25.5" y="226.2" fill="#CCCCBD" width="45.1" height="45.1"/>
<rect x="84.2" y="181.1" fill="#FFFFFF" width="9" height="9"/>
<rect x="95.5" y="163" fill="#FFFFFF" width="9" height="27.1"/>
<g>
	<polygon fill="#FFFFFF" points="31.7,262.3 42.4,262.3 37.2,257.1 	"/>
	<polygon fill="#FFFFFF" points="58.5,237.8 53.2,262.3 63.9,262.3 	"/>
	<polygon fill="#FFFFFF" points="42.4,262.3 53.2,262.3 48,251.9 	"/>
</g>
<g>
	<path fill="#FFFFFF" d="M99,261.8c-0.6,1.1-1.9,1.2-2.8,0.3l-7.3-7.4c-0.9-0.9-0.9-2.3,0-3.2c0.9-0.9,2.3-0.9,3.2,0l3.3,3.3
		c0.9,0.9,2.1,0.7,2.8-0.3l9.2-15c0.7-1.1,2-1.4,3.1-0.7c1.1,0.6,1.4,2,0.7,3.1L99,261.8z"/>
</g>
<g>
	<path fill="#464547" d="M169.3,306c0,5.8-4.7,10.5-10.5,10.5h-35.6c-5.8,0-10.5-4.7-10.5-10.5v-80c0-5.8,4.7-10.5,10.5-10.5h35.6
		c5.8,0,10.5,4.7,10.5,10.5V306z"/>
	<rect x="115.9" y="226" fill="#FFFFFF" width="50.1" height="80"/>
	<path fill="#F1F1F1" d="M147.4,311.2c0,0.7-0.6,1.3-1.3,1.3h-10.3c-0.7,0-1.3-0.6-1.3-1.3v-0.6c0-0.7,0.6-1.3,1.3-1.3h10.3
		c0.7,0,1.3,0.6,1.3,1.3V311.2z"/>
	<path fill="#F1F1F1" d="M147.4,218.9c0,0.4-0.6,0.6-1.3,0.6h-10.3c-0.7,0-1.3-0.3-1.3-0.6v-0.3c0-0.4,0.6-0.6,1.3-0.6h10.3
		c0.7,0,1.3,0.3,1.3,0.6V218.9z"/>
	<circle fill="#F1F1F1" cx="141" cy="222.4" r="1.2"/>
</g>
<g>
	<circle fill="#9F9EA3" cx="121.8" cy="285.8" r="1.7"/>
	<path fill="#9F9EA3" d="M128.3,285.8c0,0.9-0.7,1.6-1.7,1.6c-0.9,0-1.6-0.7-1.6-1.6c0-0.9,0.7-1.7,1.6-1.7
		C127.6,284.2,128.3,284.9,128.3,285.8z"/>
	<circle fill="#9F9EA3" cx="131.6" cy="285.8" r="1.6"/>
	<circle fill="#9F9EA3" cx="136.5" cy="285.8" r="1.7"/>
	<circle fill="#9F9EA3" cx="121.8" cy="292" r="1.7"/>
	<path fill="#9F9EA3" d="M128.3,292c0,0.9-0.7,1.6-1.7,1.6c-0.9,0-1.6-0.7-1.6-1.6c0-0.9,0.7-1.7,1.6-1.7
		C127.6,290.3,128.3,291,128.3,292z"/>
	<path fill="#9F9EA3" d="M123.4,298.1c0,0.9-0.7,1.6-1.7,1.6c-0.9,0-1.7-0.7-1.7-1.6c0-0.9,0.7-1.7,1.7-1.7
		C122.7,296.5,123.4,297.2,123.4,298.1z"/>
	<path fill="#9F9EA3" d="M128.3,298.1c0,0.9-0.7,1.6-1.7,1.6c-0.9,0-1.6-0.7-1.6-1.6c0-0.9,0.7-1.7,1.6-1.7
		C127.6,296.5,128.3,297.2,128.3,298.1z"/>
	<circle fill="#9F9EA3" cx="131.6" cy="292" r="1.6"/>
	<circle fill="#9F9EA3" cx="136.5" cy="292" r="1.7"/>
	<path fill="#9F9EA3" d="M143.1,292c0,0.9-0.7,1.6-1.7,1.6c-0.9,0-1.6-0.7-1.6-1.6c0-0.9,0.7-1.7,1.6-1.7
		C142.3,290.3,143.1,291,143.1,292z"/>
	<path fill="#9F9EA3" d="M138.2,298.1c0,0.9-0.7,1.6-1.7,1.6c-0.9,0-1.7-0.7-1.7-1.6c0-0.9,0.7-1.7,1.7-1.7
		C137.4,296.5,138.2,297.2,138.2,298.1z"/>
	<path fill="#9F9EA3" d="M143.1,298.1c0,0.9-0.7,1.6-1.7,1.6c-0.9,0-1.6-0.7-1.6-1.6c0-0.9,0.7-1.7,1.6-1.7
		C142.3,296.5,143.1,297.2,143.1,298.1z"/>
	<circle fill="#9F9EA3" cx="161.1" cy="285.8" r="1.7"/>
	<circle fill="#9F9EA3" cx="146.3" cy="285.8" r="1.7"/>
	<path fill="#9F9EA3" d="M148,298.1c0,0.9-0.7,1.6-1.7,1.6c-0.9,0-1.7-0.7-1.7-1.6c0-0.9,0.7-1.7,1.7-1.7
		C147.3,296.5,148,297.2,148,298.1z"/>
	<circle fill="#9F9EA3" cx="151.3" cy="285.8" r="1.7"/>
	<path fill="#9F9EA3" d="M157.8,285.8c0,0.9-0.7,1.6-1.6,1.6c-0.9,0-1.6-0.7-1.6-1.6c0-0.9,0.7-1.7,1.6-1.7
		C157.1,284.2,157.8,284.9,157.8,285.8z"/>
	<circle fill="#9F9EA3" cx="151.3" cy="292" r="1.7"/>
	<path fill="#9F9EA3" d="M157.8,292c0,0.9-0.7,1.6-1.6,1.6c-0.9,0-1.6-0.7-1.6-1.6c0-0.9,0.7-1.7,1.6-1.7
		C157.1,290.3,157.8,291,157.8,292z"/>
</g>
<g>
	<circle fill="#34B3C2" cx="140.4" cy="236.3" r="5.3"/>
	<g>
		<g>
			<path fill="#34B3C2" d="M140.4,268c-9.3,0-16.9-7.6-16.9-17c0-9.3,7.6-16.9,16.9-16.9c9.3,0,16.9,7.6,16.9,16.9
				C157.4,260.4,149.8,268,140.4,268z M140.4,236.5c-8.1,0-14.6,6.6-14.6,14.6c0,8.1,6.6,14.6,14.6,14.6c8.1,0,14.6-6.6,14.6-14.6
				C155,243,148.5,236.5,140.4,236.5z"/>
		</g>
		<g>
			<path fill="#34B3C2" d="M133.7,253.4c0.1,0.1,0.2,0.2,0.3,0.3c0.1,0.1,0.2,0.1,0.4,0.2c0.2,0,0.3,0.1,0.5,0.1c0.1,0,0.2,0,0.4,0
				c0.1,0,0.2-0.1,0.4-0.1c0.1-0.1,0.2-0.1,0.3-0.2c0.1-0.1,0.1-0.2,0.1-0.4c0-0.2,0-0.3-0.1-0.4c-0.1-0.1-0.2-0.2-0.4-0.2
				c-0.2-0.1-0.3-0.1-0.5-0.2c-0.2,0-0.4-0.1-0.6-0.2c-0.2,0-0.4-0.1-0.6-0.2c-0.2-0.1-0.4-0.2-0.5-0.3c-0.2-0.1-0.3-0.3-0.4-0.5
				c-0.1-0.2-0.1-0.4-0.1-0.7c0-0.3,0.1-0.5,0.2-0.8c0.1-0.2,0.3-0.4,0.5-0.5c0.2-0.1,0.4-0.2,0.7-0.3c0.3-0.1,0.5-0.1,0.8-0.1
				c0.3,0,0.6,0,0.9,0.1c0.3,0.1,0.5,0.2,0.7,0.3c0.2,0.1,0.4,0.3,0.5,0.6c0.1,0.2,0.2,0.5,0.2,0.8h-1.2c0-0.2,0-0.3-0.1-0.4
				c-0.1-0.1-0.1-0.2-0.2-0.3c-0.1-0.1-0.2-0.1-0.3-0.1c-0.1,0-0.3,0-0.4,0c-0.1,0-0.2,0-0.3,0c-0.1,0-0.2,0.1-0.3,0.1
				c-0.1,0.1-0.2,0.1-0.2,0.2c-0.1,0.1-0.1,0.2-0.1,0.3c0,0.1,0,0.2,0.1,0.3c0,0.1,0.1,0.1,0.3,0.2c0.1,0.1,0.3,0.1,0.5,0.2
				c0.2,0.1,0.5,0.1,0.9,0.2c0.1,0,0.2,0.1,0.4,0.1c0.2,0.1,0.4,0.1,0.6,0.3c0.2,0.1,0.3,0.3,0.5,0.5c0.1,0.2,0.2,0.5,0.2,0.8
				c0,0.3-0.1,0.5-0.2,0.7c-0.1,0.2-0.3,0.4-0.4,0.6c-0.2,0.2-0.4,0.3-0.7,0.4c-0.3,0.1-0.6,0.1-1,0.1c-0.3,0-0.6,0-0.9-0.1
				c-0.3-0.1-0.6-0.2-0.8-0.4c-0.2-0.2-0.4-0.4-0.5-0.6c-0.1-0.3-0.2-0.6-0.2-0.9h1.2C133.6,253.1,133.6,253.3,133.7,253.4z"/>
			<path fill="#34B3C2" d="M142.1,249.1v1h-3v1.2h2.7v1h-2.7v1.4h3.1v1h-4.3v-5.7H142.1z"/>
			<path fill="#34B3C2" d="M143,250.8c0.1-0.4,0.3-0.7,0.5-1c0.2-0.3,0.5-0.5,0.9-0.6c0.3-0.2,0.7-0.2,1.2-0.2
				c0.4,0,0.8,0.1,1.2,0.2c0.3,0.2,0.6,0.4,0.9,0.6c0.2,0.3,0.4,0.6,0.5,1c0.1,0.4,0.2,0.8,0.2,1.2c0,0.4-0.1,0.8-0.2,1.2
				c-0.1,0.4-0.3,0.7-0.5,0.9c-0.2,0.3-0.5,0.5-0.9,0.6c-0.3,0.2-0.7,0.2-1.2,0.2c-0.4,0-0.8-0.1-1.2-0.2c-0.3-0.2-0.6-0.4-0.9-0.6
				c-0.2-0.3-0.4-0.6-0.5-0.9c-0.1-0.4-0.2-0.7-0.2-1.2C142.8,251.6,142.9,251.2,143,250.8z M144.1,252.7c0.1,0.2,0.1,0.4,0.3,0.6
				c0.1,0.2,0.3,0.3,0.5,0.4c0.2,0.1,0.4,0.2,0.7,0.2c0.3,0,0.5-0.1,0.7-0.2c0.2-0.1,0.4-0.3,0.5-0.4c0.1-0.2,0.2-0.4,0.3-0.6
				c0.1-0.2,0.1-0.5,0.1-0.7c0-0.2,0-0.5-0.1-0.7c-0.1-0.2-0.1-0.4-0.3-0.6c-0.1-0.2-0.3-0.3-0.5-0.4c-0.2-0.1-0.4-0.2-0.7-0.2
				c-0.3,0-0.5,0.1-0.7,0.2c-0.2,0.1-0.4,0.3-0.5,0.4c-0.1,0.2-0.2,0.4-0.3,0.6c-0.1,0.2-0.1,0.5-0.1,0.7
				C144,252.2,144.1,252.5,144.1,252.7z"/>
		</g>
		<path fill="#34B3C2" d="M151,252.2c0-2.9,2.4-5.3,5.3-5.3c2.9,0,5.3,2.4,5.3,5.3c0,2.9-2.4,5.3-5.3,5.3
			C153.3,257.4,151,255.1,151,252.2z"/>
		<circle fill="#34B3C2" cx="140.4" cy="268" r="5.3"/>
		<path fill="#34B3C2" d="M119.3,252.2c0-2.9,2.4-5.3,5.3-5.3c2.9,0,5.3,2.4,5.3,5.3c0,2.9-2.4,5.3-5.3,5.3
			C121.7,257.4,119.3,255.1,119.3,252.2z"/>
	</g>
</g>
<rect x="106.7" y="173.4" fill="#FFFFFF" width="9" height="16.7"/>
</svg>
