<?xml version="1.0" encoding="utf-8"?>
<!-- Generator: Adobe Illustrator 18.1.1, SVG Export Plug-In . SVG Version: 6.00 Build 0)  -->
<svg version="1.1" id="Layer_1" xmlns="http://www.w3.org/2000/svg" xmlns:xlink="http://www.w3.org/1999/xlink" x="0px" y="0px"
	 viewBox="0 0 681.3 319.2" enable-background="new 0 0 681.3 319.2" xml:space="preserve">
<ellipse fill="#D5D7D8" cx="293.7" cy="297.5" rx="108.9" ry="3.8"/>
<ellipse fill="#D5D7D8" cx="525.7" cy="303.1" rx="155.6" ry="4.4"/>
<ellipse fill="#D5D7D8" cx="141.7" cy="316.6" rx="33.7" ry="2.6"/>
<ellipse fill="#D5D7D8" cx="73.7" cy="308.4" rx="73.7" ry="4"/>
<g>
	<g>
		<path fill="#464547" d="M471.1,10c0-5.5-4.5-10-10-10h-340c-5.5,0-10,4.5-10,10v205h360V10z"/>
		<rect x="121.1" y="10" fill="#FFFFFF" width="340" height="195"/>
		<rect x="236.1" y="249" fill="#DEDFE0" width="110" height="34.8"/>
		<polygon fill="#B8BABC" points="346.1,268.5 236.1,262.5 236.1,243 346.1,243 		"/>
		<polygon fill="#EFEFF0" points="351.1,294 231.6,294 236.4,283.8 346.3,283.8 		"/>
		<path fill="#FFFFFF" d="M349.1,297c-2,0-113,0-115,0c-2,0-2.5-3-2.5-3h119.5C351.1,294,351.1,297,349.1,297z"/>
		<path fill="#DCDDDE" d="M111.1,215v25c0,5.5,4.5,10,10,10h340c5.5,0,10-4.5,10-10v-25H111.1z"/>
	</g>
	<g>
		<defs>
			<rect id="SVGID_1_" x="121.1" y="10" width="340" height="195"/>
		</defs>
		<clipPath id="SVGID_2_">
			<use xlink:href="#SVGID_1_"  overflow="visible"/>
		</clipPath>
		<g clip-path="url(#SVGID_2_)">
			<g>
				<rect x="121.1" y="19.1" fill="#555655" width="345.1" height="185.9"/>
				<g>
					<rect x="126.3" y="32.7" fill="#B6B6B6" width="31.4" height="3.7"/>
					<rect x="126.3" y="196.8" fill="#B6B6B6" width="15.7" height="3.7"/>
					<rect x="142" y="40.1" fill="#B6B6B6" width="31.4" height="3.7"/>
					<rect x="142" y="129.6" fill="#B6B6B6" width="15.7" height="3.7"/>
					<rect x="142" y="137.1" fill="#B6B6B6" width="31.4" height="3.7"/>
					<rect x="142" y="189.3" fill="#B6B6B6" width="15.7" height="3.7"/>
					<rect x="189.1" y="62.5" fill="#B6B6B6" width="57.6" height="3.7"/>
					<rect x="173.4" y="55.1" fill="#6FC172" width="10.5" height="3.7"/>
					<rect x="173.4" y="70" fill="#6FC172" width="10.5" height="3.7"/>
					<rect x="157.7" y="47.6" fill="#EF4C69" width="57.6" height="3.7"/>
					<rect x="157.7" y="144.6" fill="#EF4C69" width="57.6" height="3.7"/>
					<rect x="173.4" y="77.4" fill="#6FC172" width="57.6" height="3.7"/>
					<rect x="173.4" y="152" fill="#6FC172" width="57.6" height="3.7"/>
					<rect x="173.4" y="114.7" fill="#6FC172" width="15.7" height="3.7"/>
					<rect x="157.7" y="122.2" fill="#EF4C69" width="15.7" height="3.7"/>
					<rect x="157.7" y="181.8" fill="#EF4C69" width="15.7" height="3.7"/>
					<rect x="173.4" y="174.4" fill="#6FC172" width="15.7" height="3.7"/>
					<rect x="189.1" y="84.9" fill="#B6B6B6" width="78.5" height="3.7"/>
					<rect x="189.1" y="92.3" fill="#B6B6B6" width="94.2" height="3.7"/>
					<rect x="189.1" y="99.8" fill="#B6B6B6" width="73.3" height="3.7"/>
					<rect x="189.1" y="159.5" fill="#B6B6B6" width="78.5" height="3.7"/>
					<rect x="189.1" y="166.9" fill="#B6B6B6" width="73.3" height="3.7"/>
					<rect x="189.1" y="107.3" fill="#B6B6B6" width="83.7" height="3.7"/>
				</g>
				<path fill="#F15B26" d="M131.7,14.4c0,1.7-1.4,3-3,3c-1.7,0-3-1.4-3-3c0-1.7,1.4-3,3-3C130.3,11.4,131.7,12.7,131.7,14.4z"/>
				<path fill="#8CC640" d="M139.2,14.4c0,1.7-1.4,3-3,3c-1.7,0-3-1.4-3-3c0-1.7,1.4-3,3-3C137.9,11.4,139.2,12.7,139.2,14.4z"/>
			</g>
		</g>
	</g>
	<g>
		<path fill="#464547" d="M644.1,290c0,4.4-3.6,8-8,8h-219c-4.4,0-8-3.6-8-8V151c0-4.4,3.6-8,8-8h219c4.4,0,8,3.6,8,8V290z"/>
		<path fill="#E0E1E2" d="M664.1,303c-10,0-265,0-275,0s-10-10-10-10h295C674.1,293,674.1,303,664.1,303z"/>
		<rect x="416.1" y="150" fill="#FFFFFF" width="221" height="137"/>
	</g>
	<g>
		<path fill="#464547" d="M141.6,297.5c0,6-5,11-11,11h-113c-6,0-11-5-11-11v-153c0-6,5-11,11-11h113c6,0,11,5,11,11V297.5z"/>
		<rect x="11.6" y="148.5" fill="#555655" width="125" height="145"/>
		<path fill="#F1F1F1" d="M82.6,300.9c0,0.9-0.7,1.6-1.6,1.6H68.2c-0.9,0-1.6-0.7-1.6-1.6v-0.8c0-0.9,0.7-1.6,1.6-1.6H81
			c0.9,0,1.6,0.7,1.6,1.6V300.9z"/>
		<circle fill="#F1F1F1" cx="73.8" cy="140" r="1.8"/>
	</g>
	<g>
		<defs>
			<rect id="SVGID_3_" x="11.6" y="148.5" width="125" height="145"/>
		</defs>
		<clipPath id="SVGID_4_">
			<use xlink:href="#SVGID_3_"  overflow="visible"/>
		</clipPath>
		<g clip-path="url(#SVGID_4_)">
			<g>
				<rect x="11.6" y="152.3" fill="#555655" width="130.1" height="110.3"/>
				<rect x="11.6" y="148.5" fill="#FFFFFF" width="133.4" height="4.6"/>
				<g>
					<rect x="14.2" y="160.4" fill="#B6B6B6" width="15.7" height="2.2"/>
					<rect x="14.2" y="257.7" fill="#B6B6B6" width="7.9" height="2.2"/>
					<rect x="22.1" y="164.8" fill="#B6B6B6" width="15.7" height="2.2"/>
					<rect x="22.1" y="217.9" fill="#B6B6B6" width="7.9" height="2.2"/>
					<rect x="22.1" y="222.3" fill="#B6B6B6" width="15.7" height="2.2"/>
					<rect x="22.1" y="253.3" fill="#B6B6B6" width="7.9" height="2.2"/>
					<rect x="45.7" y="178.1" fill="#B6B6B6" width="28.8" height="2.2"/>
					<rect x="37.8" y="173.7" fill="#6FC172" width="5.2" height="2.2"/>
					<rect x="37.8" y="182.5" fill="#6FC172" width="5.2" height="2.2"/>
					<rect x="29.9" y="169.3" fill="#EF4C69" width="28.8" height="2.2"/>
					<rect x="29.9" y="226.8" fill="#EF4C69" width="28.8" height="2.2"/>
					<rect x="37.8" y="186.9" fill="#6FC172" width="28.8" height="2.2"/>
					<rect x="37.8" y="231.2" fill="#6FC172" width="28.8" height="2.2"/>
					<rect x="37.8" y="209.1" fill="#6FC172" width="7.9" height="2.2"/>
					<rect x="29.9" y="213.5" fill="#EF4C69" width="7.9" height="2.2"/>
					<rect x="29.9" y="248.9" fill="#EF4C69" width="7.9" height="2.2"/>
					<rect x="37.8" y="244.4" fill="#6FC172" width="7.9" height="2.2"/>
					<rect x="45.7" y="191.4" fill="#B6B6B6" width="39.3" height="2.2"/>
					<rect x="45.7" y="195.8" fill="#B6B6B6" width="47.2" height="2.2"/>
					<rect x="45.7" y="200.2" fill="#B6B6B6" width="36.7" height="2.2"/>
					<rect x="45.7" y="235.6" fill="#B6B6B6" width="39.3" height="2.2"/>
					<rect x="45.7" y="240" fill="#B6B6B6" width="36.7" height="2.2"/>
					<rect x="45.7" y="204.6" fill="#B6B6B6" width="41.9" height="2.2"/>
				</g>
				<circle fill="#F15B26" cx="14.8" cy="150.8" r="1.3"/>
				<circle fill="#8CC640" cx="18" cy="150.8" r="1.3"/>
			</g>
		</g>
	</g>
	<g>
		<path fill="#464547" d="M169.4,306c0,5.8-4.7,10.5-10.5,10.5h-35.6c-5.8,0-10.5-4.7-10.5-10.5v-80c0-5.8,4.7-10.5,10.5-10.5h35.6
			c5.8,0,10.5,4.7,10.5,10.5V306z"/>
		<rect x="116" y="226" fill="#555655" width="50.1" height="80"/>
		<path fill="#F1F1F1" d="M147.6,311.2c0,0.7-0.6,1.3-1.3,1.3h-10.3c-0.7,0-1.3-0.6-1.3-1.3v-0.6c0-0.7,0.6-1.3,1.3-1.3h10.3
			c0.7,0,1.3,0.6,1.3,1.3V311.2z"/>
		<path fill="#F1F1F1" d="M147.6,218.9c0,0.4-0.6,0.6-1.3,0.6h-10.3c-0.7,0-1.3-0.3-1.3-0.6v-0.3c0-0.4,0.6-0.6,1.3-0.6h10.3
			c0.7,0,1.3,0.3,1.3,0.6V218.9z"/>
		<circle fill="#F1F1F1" cx="141.1" cy="222.4" r="1.2"/>
	</g>
	<g>
		<defs>
			<rect id="SVGID_5_" x="416.1" y="150" width="221" height="137"/>
		</defs>
		<clipPath id="SVGID_6_">
			<use xlink:href="#SVGID_5_"  overflow="visible"/>
		</clipPath>
		<g clip-path="url(#SVGID_6_)">
			<g>
				<rect x="416.1" y="156.4" fill="#555655" width="232.7" height="130.7"/>
				<g>
					<rect x="419.5" y="165.9" fill="#B6B6B6" width="20.4" height="2.6"/>
					<rect x="419.5" y="281.3" fill="#B6B6B6" width="10.2" height="2.6"/>
					<rect x="429.7" y="171.2" fill="#B6B6B6" width="20.4" height="2.6"/>
					<rect x="429.7" y="234.1" fill="#B6B6B6" width="10.2" height="2.6"/>
					<rect x="429.7" y="239.3" fill="#B6B6B6" width="20.4" height="2.6"/>
					<rect x="429.7" y="276" fill="#B6B6B6" width="10.2" height="2.6"/>
					<rect x="460.3" y="186.9" fill="#B6B6B6" width="37.4" height="2.6"/>
					<rect x="450.1" y="181.7" fill="#6FC172" width="6.8" height="2.6"/>
					<rect x="450.1" y="192.2" fill="#6FC172" width="6.8" height="2.6"/>
					<rect x="439.9" y="176.4" fill="#EF4C69" width="37.4" height="2.6"/>
					<rect x="439.9" y="244.6" fill="#EF4C69" width="37.4" height="2.6"/>
					<rect x="450.1" y="197.4" fill="#6FC172" width="37.4" height="2.6"/>
					<rect x="450.1" y="249.8" fill="#6FC172" width="37.4" height="2.6"/>
					<rect x="450.1" y="223.6" fill="#6FC172" width="10.2" height="2.6"/>
					<rect x="439.9" y="228.9" fill="#EF4C69" width="10.2" height="2.6"/>
					<rect x="439.9" y="270.8" fill="#EF4C69" width="10.2" height="2.6"/>
					<rect x="450.1" y="265.6" fill="#6FC172" width="10.2" height="2.6"/>
					<rect x="460.3" y="202.6" fill="#B6B6B6" width="51.1" height="2.6"/>
					<rect x="460.3" y="207.9" fill="#B6B6B6" width="61.3" height="2.6"/>
					<rect x="460.3" y="213.1" fill="#B6B6B6" width="47.7" height="2.6"/>
					<rect x="460.3" y="255.1" fill="#B6B6B6" width="51.1" height="2.6"/>
					<rect x="460.3" y="260.3" fill="#B6B6B6" width="47.7" height="2.6"/>
					<rect x="460.3" y="218.4" fill="#B6B6B6" width="54.5" height="2.6"/>
				</g>
				<path fill="#F15B26" d="M423.5,153.4c0,1.2-1,2.1-2.1,2.1c-1.2,0-2.1-1-2.1-2.1c0-1.2,1-2.1,2.1-2.1
					C422.5,151.3,423.5,152.2,423.5,153.4z"/>
				<path fill="#8CC640" d="M428.8,153.4c0,1.2-1,2.1-2.1,2.1c-1.2,0-2.1-1-2.1-2.1c0-1.2,1-2.1,2.1-2.1
					C427.9,151.3,428.8,152.2,428.8,153.4z"/>
			</g>
		</g>
	</g>
	<g>
		<defs>
			<rect id="SVGID_7_" x="116" y="226" width="50.1" height="80"/>
		</defs>
		<clipPath id="SVGID_8_">
			<use xlink:href="#SVGID_7_"  overflow="visible"/>
		</clipPath>
		<g clip-path="url(#SVGID_8_)">
			<g>
				<rect x="116" y="228.5" fill="#555655" width="53.4" height="71.1"/>
				<rect x="116" y="226" fill="#FFFFFF" width="54.1" height="3.3"/>
				<g>
					<rect x="117.3" y="233.7" fill="#B6B6B6" width="7.4" height="1.4"/>
					<rect x="117.3" y="296.4" fill="#B6B6B6" width="3.7" height="1.4"/>
					<rect x="121" y="236.5" fill="#B6B6B6" width="7.4" height="1.4"/>
					<rect x="121" y="270.8" fill="#B6B6B6" width="3.7" height="1.4"/>
					<rect x="121" y="273.6" fill="#B6B6B6" width="7.4" height="1.4"/>
					<rect x="121" y="293.6" fill="#B6B6B6" width="3.7" height="1.4"/>
					<rect x="132.1" y="245.1" fill="#B6B6B6" width="13.6" height="1.4"/>
					<rect x="128.4" y="242.2" fill="#6FC172" width="2.5" height="1.4"/>
					<rect x="128.4" y="247.9" fill="#6FC172" width="2.5" height="1.4"/>
					<rect x="124.7" y="239.4" fill="#EF4C69" width="13.6" height="1.4"/>
					<rect x="124.7" y="276.5" fill="#EF4C69" width="13.6" height="1.4"/>
					<rect x="128.4" y="250.8" fill="#6FC172" width="13.6" height="1.4"/>
					<rect x="128.4" y="279.3" fill="#6FC172" width="13.6" height="1.4"/>
					<rect x="128.4" y="265.1" fill="#6FC172" width="3.7" height="1.4"/>
					<rect x="124.7" y="267.9" fill="#EF4C69" width="3.7" height="1.4"/>
					<rect x="124.7" y="290.7" fill="#EF4C69" width="3.7" height="1.4"/>
					<rect x="128.4" y="287.9" fill="#6FC172" width="3.7" height="1.4"/>
					<rect x="132.1" y="253.6" fill="#B6B6B6" width="18.6" height="1.4"/>
					<rect x="132.1" y="256.5" fill="#B6B6B6" width="22.3" height="1.4"/>
					<rect x="132.1" y="259.4" fill="#B6B6B6" width="17.4" height="1.4"/>
					<rect x="132.1" y="282.2" fill="#B6B6B6" width="18.6" height="1.4"/>
					<rect x="132.1" y="285" fill="#B6B6B6" width="17.4" height="1.4"/>
					<rect x="132.1" y="262.2" fill="#B6B6B6" width="19.8" height="1.4"/>
				</g>
				<circle fill="#F15B26" cx="118.1" cy="227.7" r="0.8"/>
				<circle fill="#8CC640" cx="120.2" cy="227.7" r="0.8"/>
			</g>
		</g>
	</g>
</g>
</svg>
